<mxfile host="app.diagrams.net" modified="2022-11-16T01:32:23.499Z" agent="5.0 (Windows NT 10.0; Win64; x64) AppleWebKit/537.36 (KHTML, like Gecko) Chrome/107.0.0.0 Safari/537.36" etag="ChkO690xsp0p8ND1nRAn" version="20.5.3" type="github">
  <diagram id="X-Gu36J33hNGbKR9d6lM" name="Page-1">
    <mxGraphModel dx="1920" dy="526" grid="1" gridSize="10" guides="1" tooltips="1" connect="1" arrows="1" fold="1" page="1" pageScale="1" pageWidth="850" pageHeight="1100" math="0" shadow="0">
      <root>
        <mxCell id="0" />
        <mxCell id="1" parent="0" />
        <mxCell id="-gsyWm0zrG2Pwdm3dlUF-1" value="Yes" style="edgeStyle=orthogonalEdgeStyle;rounded=0;orthogonalLoop=1;jettySize=auto;html=1;entryX=0.5;entryY=0;entryDx=0;entryDy=0;" edge="1" parent="1" source="-gsyWm0zrG2Pwdm3dlUF-3" target="-gsyWm0zrG2Pwdm3dlUF-31">
          <mxGeometry relative="1" as="geometry">
            <mxPoint x="220" y="330" as="targetPoint" />
          </mxGeometry>
        </mxCell>
        <mxCell id="-gsyWm0zrG2Pwdm3dlUF-2" value="No" style="edgeStyle=none;rounded=0;orthogonalLoop=1;jettySize=auto;html=1;exitX=0;exitY=0.5;exitDx=0;exitDy=0;entryX=1;entryY=0.5;entryDx=0;entryDy=0;" edge="1" parent="1" source="-gsyWm0zrG2Pwdm3dlUF-3" target="-gsyWm0zrG2Pwdm3dlUF-30">
          <mxGeometry relative="1" as="geometry" />
        </mxCell>
        <mxCell id="-gsyWm0zrG2Pwdm3dlUF-3" value="Approve SO ?" style="rhombus;whiteSpace=wrap;html=1;shadow=0;fontFamily=Helvetica;fontSize=12;align=center;strokeWidth=1;spacing=6;spacingTop=-4;" vertex="1" parent="1">
          <mxGeometry x="170" y="170" width="100" height="80" as="geometry" />
        </mxCell>
        <mxCell id="-gsyWm0zrG2Pwdm3dlUF-28" style="edgeStyle=orthogonalEdgeStyle;rounded=0;orthogonalLoop=1;jettySize=auto;html=1;exitX=0.5;exitY=1;exitDx=0;exitDy=0;entryX=0.5;entryY=0;entryDx=0;entryDy=0;" edge="1" parent="1" source="-gsyWm0zrG2Pwdm3dlUF-29" target="-gsyWm0zrG2Pwdm3dlUF-3">
          <mxGeometry relative="1" as="geometry" />
        </mxCell>
        <mxCell id="-gsyWm0zrG2Pwdm3dlUF-29" value="Create SO" style="rounded=0;whiteSpace=wrap;html=1;" vertex="1" parent="1">
          <mxGeometry x="160" y="80" width="120" height="60" as="geometry" />
        </mxCell>
        <mxCell id="-gsyWm0zrG2Pwdm3dlUF-30" value="End Process" style="rounded=0;whiteSpace=wrap;html=1;" vertex="1" parent="1">
          <mxGeometry x="-10" y="180" width="120" height="60" as="geometry" />
        </mxCell>
        <mxCell id="-gsyWm0zrG2Pwdm3dlUF-33" value="" style="edgeStyle=orthogonalEdgeStyle;rounded=0;orthogonalLoop=1;jettySize=auto;html=1;" edge="1" parent="1" source="-gsyWm0zrG2Pwdm3dlUF-31" target="-gsyWm0zrG2Pwdm3dlUF-32">
          <mxGeometry relative="1" as="geometry" />
        </mxCell>
        <mxCell id="-gsyWm0zrG2Pwdm3dlUF-37" value="" style="edgeStyle=orthogonalEdgeStyle;rounded=0;orthogonalLoop=1;jettySize=auto;html=1;" edge="1" parent="1" source="-gsyWm0zrG2Pwdm3dlUF-31" target="-gsyWm0zrG2Pwdm3dlUF-36">
          <mxGeometry relative="1" as="geometry" />
        </mxCell>
        <mxCell id="-gsyWm0zrG2Pwdm3dlUF-31" value="PDO ?" style="rhombus;whiteSpace=wrap;html=1;" vertex="1" parent="1">
          <mxGeometry x="170" y="300" width="100" height="80" as="geometry" />
        </mxCell>
        <mxCell id="-gsyWm0zrG2Pwdm3dlUF-35" value="" style="edgeStyle=orthogonalEdgeStyle;rounded=0;orthogonalLoop=1;jettySize=auto;html=1;" edge="1" parent="1" source="-gsyWm0zrG2Pwdm3dlUF-32" target="-gsyWm0zrG2Pwdm3dlUF-34">
          <mxGeometry relative="1" as="geometry" />
        </mxCell>
        <mxCell id="-gsyWm0zrG2Pwdm3dlUF-32" value="Issue Component" style="whiteSpace=wrap;html=1;" vertex="1" parent="1">
          <mxGeometry x="340" y="310" width="120" height="60" as="geometry" />
        </mxCell>
        <mxCell id="-gsyWm0zrG2Pwdm3dlUF-41" style="edgeStyle=orthogonalEdgeStyle;rounded=0;orthogonalLoop=1;jettySize=auto;html=1;exitX=0.5;exitY=1;exitDx=0;exitDy=0;entryX=1;entryY=0.5;entryDx=0;entryDy=0;" edge="1" parent="1" source="-gsyWm0zrG2Pwdm3dlUF-34" target="-gsyWm0zrG2Pwdm3dlUF-39">
          <mxGeometry relative="1" as="geometry" />
        </mxCell>
        <mxCell id="-gsyWm0zrG2Pwdm3dlUF-34" value="Report Completion" style="whiteSpace=wrap;html=1;" vertex="1" parent="1">
          <mxGeometry x="340" y="440" width="120" height="60" as="geometry" />
        </mxCell>
        <mxCell id="-gsyWm0zrG2Pwdm3dlUF-40" value="" style="edgeStyle=orthogonalEdgeStyle;rounded=0;orthogonalLoop=1;jettySize=auto;html=1;" edge="1" parent="1" source="-gsyWm0zrG2Pwdm3dlUF-36" target="-gsyWm0zrG2Pwdm3dlUF-39">
          <mxGeometry relative="1" as="geometry" />
        </mxCell>
        <mxCell id="-gsyWm0zrG2Pwdm3dlUF-36" value="AR Down Payment" style="whiteSpace=wrap;html=1;" vertex="1" parent="1">
          <mxGeometry x="160" y="440" width="120" height="60" as="geometry" />
        </mxCell>
        <mxCell id="-gsyWm0zrG2Pwdm3dlUF-39" value="Delivery Order" style="whiteSpace=wrap;html=1;" vertex="1" parent="1">
          <mxGeometry x="160" y="560" width="120" height="60" as="geometry" />
        </mxCell>
      </root>
    </mxGraphModel>
  </diagram>
</mxfile>
